<svg width="555" height="109" viewBox="0 0 555 109" fill="none" xmlns="http://www.w3.org/2000/svg">
<path d="M34.2495 66.39C43.5495 40.45 47.2995 29.95 50.7395 19.31C55.6895 34.75 60.7895 49.15 66.7395 66.39H34.2495ZM40.6995 0.27002L0.519531 106.13H21.0595L29.5995 81.38H71.4295L79.8295 106.13H100.52L61.8395 0.27002H40.6995Z" fill="black"/>
<path d="M142.579 92.93C131.479 92.93 125.029 83.79 125.029 67.93C125.029 53.69 132.529 44.69 143.179 44.69C153.179 44.69 159.369 53.84 159.369 68.83C159.369 84.73 152.929 92.97 142.579 92.97V92.93ZM125.519 41.5V0.27002H107.939V106.13H124.729V96.38C129.839 103.73 136.729 107.63 146.929 107.63C165.369 107.63 177.669 93.23 177.669 68.79C177.669 44.35 166.419 30 148.869 30C144.347 29.9428 139.875 30.9546 135.817 32.953C131.759 34.9514 128.231 37.8799 125.519 41.5Z" fill="black"/>
<path d="M214.54 42.7301C221.75 42.7301 227.45 46.6301 231.2 53.2401L244.27 44.3801C237.66 33.8701 226.7 29.3801 214.84 29.3801C196.37 29.3801 185.84 40.1901 185.84 51.9001C185.84 63.3101 193.19 70.0701 204.75 73.6701L212.75 76.2201C224.01 79.8201 226.56 81.9201 226.56 86.8801C226.56 91.3801 222.36 94.6901 214.7 94.6901C206.44 94.6901 199.54 90.1801 195.64 82.5201L181.98 91.5201C188.28 100.98 198.64 108.34 213.98 108.34C232.6 108.34 244.15 98.2801 244.15 84.4601C244.15 72.4601 236.65 66.3001 223.44 62.0901L215.44 59.6901C205.83 56.6901 203.44 54.5901 203.44 50.0901C203.44 45.5901 207.04 42.7301 214.55 42.7301" fill="black"/>
<path d="M279.81 45.5801H294.27V31.5101H279.81V7.1001H262.34L262 31.5101H250.32V45.5801H262V86.4801C262 93.4001 263.06 98.6701 266.21 102.28C269.36 105.89 274.21 107.69 281.54 107.69C285.967 107.677 290.375 107.109 294.66 106V92.0001C292.347 92.8554 289.906 93.3119 287.44 93.3501C282.03 93.3501 279.81 90.6501 279.81 82.9801V45.5801Z" fill="black"/>
<path d="M320.999 31.5101H304.199V106.51H321.799V71.5101C321.799 63.5101 323.119 58.2301 325.709 54.3301C328.969 49.6501 333.629 46.8201 341.709 46.9101C343.892 46.9476 346.058 47.284 348.149 47.9101V31.5101C346.068 30.8408 343.895 30.5033 341.709 30.5101C331.349 30.5101 325.499 34.8801 320.999 43.0101V31.5101Z" fill="black"/>
<path d="M398.81 74.7401C398.65 78.9401 397.91 83.1501 395.5 86.6101C392.2 91.5601 386.64 94.4201 379.88 94.4201C372.07 94.4201 368.46 90.3601 368.46 84.9601C368.46 80.7501 370.26 77.8901 374.92 75.7901C380.18 73.2401 390.25 71.7301 398.81 71.2801V74.7401ZM415.55 59.0001C415.55 47.2801 413.98 41.1301 409.32 36.7701C404.32 31.9601 397.15 29.5601 386.94 29.5601C367.86 29.5601 355.82 38.5601 354.62 54.8001L371.47 56.3001C372.37 48.0401 376.42 43.3801 385.59 43.3801C390.25 43.3801 393.85 44.3801 395.95 46.5301C398.05 48.6801 398.81 51.3401 398.81 55.5301V59.5301C386.94 60.2901 372.52 62.3901 365.16 65.6901C356.3 69.7501 351.49 76.0601 351.49 85.6901C351.49 99.0601 361.1 107.63 374.77 107.63C385.43 107.63 393.54 103.88 399.25 96.9701C400.88 104.44 406.14 107.2 415.54 107.2C418.255 107.254 420.96 106.849 423.54 106V94.6001C416.76 95.8201 415.54 91.8501 415.54 86.0001L415.55 59.0001Z" fill="black"/>
<path d="M445.28 68.3701C445.28 51.7201 453.09 44.0701 463.28 44.0701C470.33 44.0701 475.73 47.3701 477.84 57.2701L493.6 51.8701C490.14 38.5201 479.94 29.3701 463.72 29.3701C441.36 29.3701 427.25 44.2201 427.25 68.6701C427.25 93.2701 441.06 108.27 462.82 108.27C479.82 108.27 489.69 99.2701 494.05 86.8201L478.29 81.4201C476.48 89.4201 471.68 93.5701 463.72 93.5701C452.17 93.5701 445.26 84.8701 445.26 68.3701" fill="black"/>
<path d="M527.47 45.5801H541.92V31.5101H527.47V7.1001H510L509.69 31.5101H498V45.5801H509.72V86.4801C509.72 93.4001 510.78 98.6701 513.93 102.28C517.08 105.89 521.93 107.69 529.26 107.69C533.663 107.671 538.047 107.103 542.31 106V92.0001C540 92.8545 537.562 93.311 535.1 93.3501C529.68 93.3501 527.47 90.6501 527.47 82.9801V45.5801Z" fill="black"/>
<path d="M554.79 15.9301C554.786 17.6725 554.265 19.3747 553.294 20.8213C552.323 22.2679 550.944 23.3939 549.333 24.0571C547.722 24.7202 545.95 24.8907 544.242 24.5468C542.533 24.203 540.965 23.3604 539.736 22.1255C538.507 20.8906 537.671 19.3189 537.335 17.6092C536.999 15.8994 537.178 14.1285 537.848 12.5202C538.519 10.9119 539.651 9.53849 541.102 8.57373C542.553 7.60896 544.257 7.09613 546 7.10008C547.167 7.06373 548.33 7.26758 549.416 7.69899C550.501 8.1304 551.486 8.78017 552.311 9.60804C553.135 10.4359 553.78 11.4242 554.206 12.5117C554.633 13.5992 554.832 14.7627 554.79 15.9301ZM553.18 15.9301C553.216 14.9627 553.057 13.9979 552.711 13.0935C552.366 12.1891 551.842 11.3636 551.17 10.6664C550.498 9.96919 549.693 9.41462 548.802 9.03583C547.911 8.65703 546.953 8.4618 545.985 8.4618C545.017 8.4618 544.059 8.65703 543.168 9.03583C542.277 9.41462 541.471 9.96919 540.8 10.6664C540.128 11.3636 539.604 12.1891 539.259 13.0935C538.913 13.9979 538.754 14.9627 538.79 15.9301C538.754 16.8975 538.913 17.8623 539.259 18.7667C539.604 19.6711 540.128 20.4966 540.8 21.1938C541.471 21.891 542.277 22.4455 543.168 22.8243C544.059 23.2031 545.017 23.3984 545.985 23.3984C546.953 23.3984 547.911 23.2031 548.802 22.8243C549.693 22.4455 550.498 21.891 551.17 21.1938C551.842 20.4966 552.366 19.6711 552.711 18.7667C553.057 17.8623 553.216 16.8975 553.18 15.9301ZM548.18 16.7101L550.39 20.7101H547.73L545.85 17.0001H544.79V20.6801H542.37V11.0001H546.56C548.86 11.0001 550.14 12.1101 550.14 14.0601C550.152 14.6507 549.972 15.2292 549.625 15.7076C549.278 16.186 548.785 16.538 548.22 16.7101H548.18ZM544.75 15.3301H546.07C547.07 15.3301 547.61 14.8801 547.61 14.0801C547.61 13.2801 547.09 12.8001 546.07 12.8001H544.75V15.3301Z" fill="black"/>
</svg>
